<svg width="24" height="24" viewBox="0 0 24 24" fill="none" xmlns="http://www.w3.org/2000/svg">
  <path d="M12 2C13.1 2 14 2.9 14 4C14 5.1 13.1 6 12 6C10.9 6 10 5.1 10 4C10 2.9 10.9 2 12 2ZM9 8C9 6.9 9.9 6 11 6H13C14.1 6 15 6.9 15 8V10C15 11.1 14.1 12 13 12H11C9.9 12 9 11.1 9 10V8ZM7 14C7 12.9 7.9 12 9 12H15C16.1 12 17 12.9 17 14V16C17 17.1 16.1 18 15 18H9C7.9 18 7 17.1 7 16V14ZM19 8C19 6.9 19.9 6 21 6V4C21 2.9 20.1 2 19 2C17.9 2 17 2.9 17 4V6C17 6.9 17.9 8 19 8ZM5 8C5 6.9 5.9 6 7 6V4C7 2.9 6.1 2 5 2C3.9 2 3 2.9 3 4V6C3 6.9 3.9 8 5 8Z" fill="currentColor"/>
</svg>
