<svg width="24" height="24" viewBox="0 0 24 24" fill="none" xmlns="http://www.w3.org/2000/svg">
  <path d="M12 2C6.48 2 2 6.48 2 12S6.48 22 12 22 22 17.52 22 12 17.52 2 12 2ZM16.64 8.8C16.49 10.38 15.84 14.22 15.51 15.99C15.39 16.74 15.09 16.99 14.83 17.02C14.25 17.07 13.81 16.64 13.25 16.27C12.37 15.69 11.87 15.33 11.02 14.77C10.03 14.12 10.67 13.76 11.24 13.18C11.39 13.03 14.95 9.7 15 9.39C15.0069 9.33247 15.0031 9.27306 14.99 9.22C14.97 9.16 14.9 9.11 14.83 9.11C14.75 9.11 14.66 9.12 14.55 9.14C14.42 9.16 12.4 10.1 8.49 11.95C7.98 12.18 7.52 12.29 7.11 12.28C6.65 12.26 5.79 12.06 5.13 11.89C4.35 11.69 3.76 11.58 3.81 11.15C3.83 10.95 4.08 10.74 4.58 10.52C9.33 8.34 12.21 7.05 13.23 6.64C17.84 4.75 18.73 4.42 19.26 4.42C19.37 4.42 19.61 4.44 19.77 4.57C19.91 4.68 19.95 4.81 19.97 4.91C19.99 5.01 20.01 5.24 19.99 5.43C19.88 6.87 19.23 10.38 18.92 11.99C18.75 12.9 18.42 13.22 18.11 13.25C17.48 13.31 16.98 12.8 16.35 12.36C15.35 11.65 14.7 11.2 13.72 10.51C12.84 9.89 13.35 9.52 13.79 9.06C13.9 8.95 16.64 6.33 16.69 6.08C16.69 6.05 16.69 5.91 16.6 5.83C16.52 5.75 16.4 5.78 16.31 5.8C16.19 5.83 14.19 6.91 11.15 8.83C10.83 9.02 10.54 9.11 10.28 9.1C9.99 9.09 9.45 8.96 9.05 8.85C8.58 8.72 8.22 8.65 8.25 8.39C8.26 8.28 8.4 8.16 8.68 8.03C11.25 6.75 13.8 5.5 16.64 8.8Z" fill="currentColor"/>
</svg>
